<?xml version="1.0" standalone="no"?>
<!DOCTYPE svg PUBLIC "-//W3C//DTD SVG 20010904//EN"
 "http://www.w3.org/TR/2001/REC-SVG-20010904/DTD/svg10.dtd">
<svg version="1.0" xmlns="http://www.w3.org/2000/svg"
 width="512.000000pt" height="512.000000pt" viewBox="0 0 512.000000 512.000000"
 preserveAspectRatio="xMidYMid meet">

<g transform="translate(0.000000,512.000000) scale(0.100000,-0.100000)"
fill="#000000" stroke="none">
<path d="M767 5080 c-337 -58 -600 -292 -704 -627 l-27 -88 -4 -497 -3 -498
25 -25 c33 -33 79 -33 111 0 l25 24 0 456 c0 524 3 555 75 700 79 161 178 259
340 336 154 73 38 69 1955 69 1917 0 1801 4 1955 -69 162 -77 261 -175 340
-336 80 -162 75 -32 75 -1965 0 -1932 5 -1803 -75 -1965 -76 -156 -174 -254
-330 -330 -162 -80 -33 -75 -1965 -75 -1933 0 -1803 -5 -1965 75 -161 79 -259
178 -336 340 -70 147 -69 133 -69 1090 0 838 0 855 -20 875 -11 11 -30 22 -44
26 -32 8 -84 -20 -91 -49 -3 -12 -4 -420 -3 -907 l3 -885 28 -88 c94 -303 300
-509 604 -604 l88 -28 1805 0 1805 0 88 28 c304 95 509 300 604 604 l28 88 0
1805 0 1805 -28 88 c-95 304 -300 509 -604 604 l-88 28 -1775 1 c-976 1 -1797
-2 -1823 -6z"/>
<path d="M3081 4557 c-18 -7 -51 -28 -72 -46 -111 -93 -116 -257 -11 -362 53
-53 97 -69 185 -69 l57 0 0 -247 0 -248 -78 0 c-63 0 -85 -5 -119 -24 -133
-76 -162 -277 -57 -385 49 -50 89 -68 164 -74 59 -4 71 -1 130 30 89 46 123
101 128 205 l4 73 251 -2 251 -3 2 -66 c4 -134 89 -224 223 -236 76 -7 130 10
183 57 99 86 108 234 22 347 -36 47 -97 75 -176 81 l-68 5 0 243 0 244 60 0
c104 0 173 43 216 135 50 105 19 242 -68 305 -119 87 -297 48 -367 -80 -19
-34 -25 -59 -25 -112 l-1 -68 -252 0 -253 0 0 59 c0 106 -35 169 -120 215 -61
33 -155 43 -209 23z m150 -173 c27 -25 27 -119 0 -134 -22 -11 -80 -13 -106
-4 -47 19 -56 118 -12 149 27 20 90 14 118 -11z m983 5 c33 -26 36 -84 5 -123
-19 -24 -27 -27 -78 -24 l-56 3 -9 47 c-7 38 -6 52 8 73 31 47 87 57 130 24z
m-274 -554 l0 -265 -270 0 -270 0 0 265 0 265 270 0 270 0 0 -265z m-706 -421
c10 -10 16 -33 16 -63 0 -58 -20 -80 -78 -88 -34 -5 -45 -1 -66 20 -15 15 -26
37 -26 52 0 31 24 81 42 88 29 12 97 6 112 -9z m967 5 c47 -25 54 -115 12
-146 -39 -29 -127 -3 -135 39 -2 13 -2 42 0 65 3 33 8 43 25 46 42 8 79 7 98
-4z"/>
<path d="M55 3095 c-24 -23 -25 -31 -25 -134 0 -101 2 -112 23 -137 17 -20 33
-27 57 -27 24 0 40 7 57 27 21 25 23 36 23 137 0 103 -1 111 -25 134 -15 16
-36 25 -55 25 -19 0 -40 -9 -55 -25z"/>
<path d="M4665 1485 c-22 -21 -25 -33 -25 -96 0 -64 -2 -70 -17 -64 -153 65
-320 -23 -369 -194 -71 -243 160 -476 372 -375 26 13 38 14 47 5 6 -6 28 -11
48 -11 29 0 43 6 59 27 20 26 21 34 18 361 l-3 334 -24 19 c-32 26 -77 24
-106 -6z m-73 -332 c57 -55 60 -157 6 -218 -57 -66 -142 -53 -179 28 -23 52
-24 94 -2 148 32 80 114 100 175 42z"/>
<path d="M600 1436 c-108 -23 -199 -98 -248 -205 -22 -47 -27 -70 -26 -141 0
-72 4 -94 28 -148 41 -89 124 -164 212 -192 83 -25 125 -25 206 0 86 26 158
87 158 134 0 42 -35 76 -78 76 -19 0 -49 -12 -77 -32 -39 -28 -55 -33 -105
-33 -49 0 -66 5 -101 30 -50 35 -81 90 -86 154 -4 37 1 57 24 101 52 99 157
132 252 79 24 -13 54 -30 67 -37 29 -16 57 -9 84 21 47 50 9 117 -93 166 -74
35 -142 44 -217 27z"/>
<path d="M1165 1357 c-66 -22 -99 -43 -142 -90 -53 -57 -68 -88 -83 -163 -21
-105 17 -213 101 -289 203 -183 529 -39 529 235 0 170 -129 307 -298 316 -39
2 -84 -2 -107 -9z m173 -174 c46 -34 72 -82 72 -130 0 -119 -118 -195 -224
-144 -156 76 -95 312 77 298 27 -2 60 -13 75 -24z"/>
<path d="M1656 1346 l-26 -25 0 -266 c0 -151 4 -274 10 -284 15 -30 65 -46 99
-32 46 20 51 45 51 250 0 169 2 190 18 204 19 18 49 22 68 9 29 -19 34 -56 34
-241 l0 -190 26 -20 c35 -28 67 -26 101 3 l28 24 3 199 c3 164 6 201 19 215
21 23 55 23 76 0 15 -16 17 -46 17 -211 l0 -193 30 -30 c26 -25 36 -29 63 -24
64 12 67 24 67 259 0 193 -2 214 -21 254 -53 110 -203 157 -302 94 -29 -18
-30 -18 -65 2 -33 20 -98 26 -177 19 -11 -1 -37 1 -57 4 -31 5 -41 2 -62 -20z"/>
<path d="M2424 1359 c-40 -20 -44 -48 -44 -315 l0 -256 30 -30 c26 -25 36 -29
63 -24 63 12 67 26 67 242 0 181 1 195 20 214 11 11 29 20 40 20 11 0 29 -9
40 -20 19 -19 20 -33 20 -211 0 -105 4 -198 10 -208 15 -30 65 -46 99 -32 46
20 51 45 51 250 0 169 2 190 18 204 23 21 52 22 78 3 17 -13 19 -31 24 -221 5
-202 5 -207 29 -226 31 -26 64 -24 98 5 l28 24 3 184 c5 233 -3 273 -66 338
-71 73 -159 90 -245 46 l-47 -23 -47 24 c-41 21 -57 24 -108 19 -75 -7 -74 -7
-110 -1 -16 2 -40 0 -51 -6z"/>
<path d="M3800 1342 l-30 -30 0 -262 0 -262 30 -30 c26 -25 36 -29 63 -24 63
12 67 26 67 242 0 181 1 195 20 214 11 11 29 20 40 20 11 0 29 -9 40 -20 19
-19 20 -33 20 -211 0 -105 4 -198 10 -208 15 -30 65 -46 99 -32 46 20 51 45
51 260 0 198 0 199 -28 252 -40 76 -103 114 -186 113 -34 0 -70 -1 -81 -3 -11
-1 -34 1 -52 5 -27 5 -37 1 -63 -24z"/>
<path d="M3345 1351 c-150 -39 -247 -203 -215 -365 31 -155 137 -250 280 -250
43 0 76 6 98 18 32 17 35 17 53 0 27 -25 74 -22 104 6 l25 23 0 247 c0 235 -1
249 -21 274 -21 27 -69 35 -98 17 -10 -6 -28 -3 -54 11 -44 22 -126 31 -172
19z m133 -183 c91 -84 53 -257 -59 -274 -71 -11 -133 59 -133 151 0 124 112
196 192 123z"/>
</g>
</svg>
